<svg width="41" height="40" viewBox="0 0 41 40" fill="none" xmlns="http://www.w3.org/2000/svg">
<g id="favicon" clip-path="url(#clip0_1753_5419)">
<g id="Vector">
<path d="M25.0014 9.79724L23.2053 18.3981L35.79 17.1948L37.6088 7.00605L25.0014 9.79724Z" fill="#040826"/>
<path d="M32.4141 17.6837L23.7668 20.6189L31.1304 30.3865L41.2201 26.6545L32.4141 17.6837Z" fill="#040826"/>
<path d="M28.9175 27.86L21.9576 22.2312L16.829 33.3249L25.2267 39.7347L28.9175 27.86Z" fill="#040826"/>
<path d="M18.0883 29.998L19.6883 21.3633L7.13172 22.8288L5.54519 33.0511L18.0883 29.998Z" fill="#040826"/>
<path d="M10.7888 22.1777L19.3688 19.0632L11.7829 9.45346L1.77884 13.3945L10.7888 22.1777Z" fill="#040826"/>
<path d="M14.2213 12.2243L21.3091 17.7054L26.1846 6.50938L17.6413 0.277556L14.2213 12.2243Z" fill="#040826"/>
</g>
</g>
<defs>
<clipPath id="clip0_1753_5419">
<rect width="40" height="40" fill="white" transform="translate(0.5)"/>
</clipPath>
</defs>
</svg>
